<svg width="218" height="60" viewBox="0 0 218 60" fill="none" xmlns="http://www.w3.org/2000/svg">
<g clip-path="url(#clip0_60_221)">
<path d="M19.3023 16.0208C18.8921 18.3715 18.0955 20.1016 16.9125 21.2111C15.7295 22.3207 14.1119 22.8747 12.0596 22.8731H0.581665L4.55764 0.112305H16.4947C18.348 0.112305 19.619 0.598206 20.3077 1.57001C20.9964 2.54181 21.177 3.96049 20.8495 5.82604C20.7634 6.33967 20.6445 6.84726 20.4937 7.34573C20.3573 7.79264 20.1734 8.22363 19.945 8.63126C19.7108 9.04047 19.4228 9.41647 19.0888 9.74922C18.6968 10.1358 18.2746 10.4904 17.8262 10.8098C18.5663 11.3159 19.0999 12.0711 19.3298 12.9378C19.5333 13.7535 19.5242 14.7812 19.3023 16.0208ZM13.5816 5.41513H8.91468L8.25125 9.22353H13.5587C13.9968 9.2157 14.418 9.05341 14.7481 8.7653C15.0782 8.47719 15.296 8.08175 15.363 7.64875C15.4158 7.38196 15.4099 7.10687 15.3455 6.84263C15.2812 6.57838 15.16 6.33134 14.9904 6.11872C14.8209 5.9061 14.607 5.733 14.3637 5.61148C14.1204 5.48997 13.8535 5.42296 13.5816 5.41513ZM12.3236 13.7918H7.45238L6.77977 17.6277H12.3236C12.7613 17.6203 13.1822 17.4585 13.5119 17.1707C13.8417 16.8829 14.0591 16.4878 14.1257 16.0552C14.1796 15.7851 14.1739 15.5065 14.109 15.2388C14.0441 14.971 13.9216 14.7207 13.75 14.5052C13.5785 14.2897 13.362 14.1142 13.1156 13.991C12.8692 13.8678 12.599 13.7998 12.3236 13.7918Z" fill="white"/>
<path d="M20.2503 22.8734L23.9967 0.140137H28.9782L26.0972 17.628H34.5771L33.714 22.8734H20.2503Z" fill="white"/>
<path d="M55.6324 13.9896C55.3818 15.5139 54.9709 17.0074 54.4065 18.4454C53.9977 19.4947 53.3602 20.4397 52.5402 21.2115C51.7519 21.9037 50.8061 22.3923 49.7855 22.6348C48.506 22.9284 47.1955 23.0656 45.883 23.0434H43.1971C41.9221 23.0739 40.6486 22.9366 39.4094 22.6348C38.5238 22.4258 37.7345 21.9244 37.1689 21.2115C36.6623 20.5336 36.3815 19.6115 36.3264 18.4454C36.302 16.9494 36.4413 15.4553 36.7419 13.9896L37.6487 9.02652C37.8994 7.50276 38.3063 6.00887 38.863 4.56847C39.2656 3.52265 39.8988 2.58106 40.7156 1.81376C41.5018 1.12146 42.4488 0.636912 43.4703 0.404261C44.7637 0.115147 46.0867 -0.0204637 47.4118 0.000235769H50.0839C51.3474 -0.0277311 52.6094 0.104945 53.8395 0.395078C54.7264 0.594217 55.5182 1.09177 56.0823 1.80457C56.5904 2.48254 56.8758 3.40078 56.9386 4.55929C57.0013 5.7178 56.8674 7.20382 56.5368 9.01734L55.6324 13.9896ZM49.2047 5.41555H45.5317C45.0516 5.41531 44.5866 5.58362 44.2178 5.89113C43.8491 6.19864 43.5999 6.62584 43.5139 7.09822L42.031 15.2086C41.9768 15.5043 41.9883 15.8083 42.0646 16.099C42.141 16.3898 42.2804 16.6602 42.473 16.8911C42.6655 17.122 42.9065 17.3077 43.1788 17.4351C43.4511 17.5624 43.7482 17.6283 44.0488 17.6281H47.7217C48.2019 17.6284 48.6669 17.4601 49.0357 17.1525C49.4044 16.845 49.6535 16.4178 49.7396 15.9454L51.2225 7.83511C51.2766 7.53997 51.2653 7.23656 51.1893 6.94629C51.1133 6.65602 50.9745 6.38597 50.7827 6.15521C50.5909 5.92445 50.3508 5.73861 50.0793 5.6108C49.8079 5.483 49.5116 5.41634 49.2116 5.41555H49.2047Z" fill="white"/>
<path d="M76.4603 5.41532H67.1953C66.7307 5.40501 66.2769 5.55574 65.9108 5.84194C65.5447 6.12813 65.2888 6.53217 65.1867 6.9855L63.5522 15.3805C63.3226 16.5558 64.2868 17.6371 65.5609 17.6371H74.0798L73.0583 22.8825H64.8309C63.4747 22.9121 62.1199 22.7795 60.7952 22.4877C59.7438 22.2229 58.9488 21.7477 58.4101 21.0621C57.8714 20.3765 57.5722 19.446 57.5125 18.2707C57.4589 17.1091 57.612 15.6223 57.9716 13.8103L58.8623 9.18239C59.1348 7.6588 59.5514 6.16455 60.1065 4.71975C60.5091 3.66883 61.1504 2.7258 61.9797 1.96503C62.7909 1.26537 63.7611 0.775119 64.8056 0.537174C66.1622 0.239882 67.5491 0.102739 68.9377 0.128558H77.4842L76.4603 5.41532Z" fill="white"/>
<path d="M81.1571 22.8207L76.4924 22.8735L80.7232 0.147125L85.4384 0.126465L84.1414 6.06288C84.1075 6.25844 84.1347 6.45969 84.2192 6.63927C84.3037 6.81885 84.4415 6.96805 84.6138 7.0666C84.786 7.16515 84.9845 7.20827 85.1821 7.1901C85.3798 7.17194 85.567 7.09336 85.7184 6.96505L93.3375 0.140238H99.6848L89.2192 10.4704L95.7984 22.8781H89.2307L84.348 14.1021C84.2607 13.9444 84.1269 13.8175 83.9648 13.7388C83.8027 13.66 83.6203 13.6333 83.4424 13.6621C83.2646 13.691 83.1 13.7742 82.9711 13.9002C82.8423 14.0262 82.7555 14.1889 82.7227 14.366L81.1571 22.8207Z" fill="white"/>
<path d="M117.363 16.0208C116.947 18.3715 116.14 20.1016 114.944 21.2111C113.747 22.3207 112.109 22.8747 110.031 22.8731H98.4246L102.446 0.112305H114.521C116.399 0.112305 117.685 0.598206 118.38 1.57001C119.075 2.54181 119.258 3.96049 118.929 5.82604C118.844 6.33963 118.725 6.84723 118.575 7.34573C118.437 7.79288 118.25 8.22385 118.02 8.63126C117.783 9.04126 117.492 9.41733 117.154 9.74922C116.757 10.1362 116.329 10.4909 115.876 10.8098C116.623 11.3128 117.164 12.0683 117.4 12.9378C117.593 13.7535 117.581 14.7812 117.363 16.0208ZM111.565 5.41513H106.868L106.179 9.22353H111.56C111.998 9.21776 112.419 9.05783 112.75 8.77188C113.082 8.48593 113.302 8.09228 113.371 7.66022C113.424 7.39085 113.417 7.11325 113.351 6.84683C113.285 6.5804 113.162 6.33158 112.99 6.11776C112.818 5.90394 112.601 5.73028 112.355 5.60892C112.109 5.48756 111.839 5.42142 111.565 5.41513ZM110.311 13.7918H105.376L104.698 17.6277H110.311C110.751 17.622 111.176 17.4612 111.509 17.1735C111.842 16.8859 112.064 16.4899 112.134 16.0552C112.187 15.7835 112.18 15.5034 112.114 15.2346C112.048 14.9658 111.923 14.7147 111.75 14.4991C111.576 14.2834 111.357 14.1084 111.109 13.9862C110.86 13.864 110.588 13.7976 110.311 13.7918Z" fill="white"/>
<path d="M137.608 13.9895C137.367 15.5105 136.974 17.0033 136.433 18.4452C136.046 19.4868 135.435 20.4311 134.644 21.2114C133.896 21.9003 132.987 22.3897 132 22.6347C130.773 22.9287 129.515 23.066 128.253 23.0433H125.692C124.47 23.0737 123.249 22.9362 122.065 22.6347C121.207 22.42 120.45 21.9176 119.918 21.2114C119.432 20.5334 119.162 19.6114 119.11 18.4452C119.086 16.9502 119.219 15.4567 119.507 13.9895L121.934 0.140137H127.232L124.367 16.4963C124.34 16.6316 124.343 16.7711 124.376 16.9051C124.409 17.0391 124.47 17.1644 124.556 17.2721C124.643 17.3799 124.751 17.4676 124.875 17.529C124.998 17.5905 125.134 17.6243 125.272 17.628H130.382C130.751 17.6215 131.107 17.4847 131.386 17.2415C131.665 16.9983 131.849 16.6645 131.906 16.2988L134.736 0.140137H140.032L137.608 13.9895Z" fill="white"/>
<path d="M138.777 22.8731L139.695 17.6277H149.593C150.007 17.6236 150.406 17.4739 150.721 17.2048C151.035 16.9357 151.245 16.5645 151.313 16.1562C151.362 15.9011 151.354 15.6383 151.291 15.3863C151.228 15.1343 151.11 14.8993 150.946 14.6976C150.782 14.4959 150.576 14.3326 150.343 14.2189C150.109 14.1052 149.853 14.0441 149.593 14.0397H146.15C143.9 14.0397 142.37 13.475 141.559 12.3455C140.748 11.2161 140.548 9.47298 140.96 7.11617C141.382 4.74405 142.203 2.9841 143.423 1.8363C144.643 0.688499 146.377 0.113835 148.627 0.112305H158.188L157.245 5.41513H147.959C147.556 5.41944 147.167 5.56561 146.861 5.82799C146.555 6.09037 146.351 6.45217 146.286 6.84988C146.237 7.09869 146.243 7.35515 146.304 7.60119C146.366 7.84723 146.48 8.07685 146.64 8.27386C146.799 8.47087 147 8.63047 147.228 8.7414C147.456 8.85234 147.705 8.91191 147.959 8.91592H151.441C153.691 8.91592 155.226 9.46533 156.046 10.5642C156.867 11.663 157.064 13.4069 156.639 15.7958C156.209 18.1649 155.381 19.9394 154.157 21.1193C152.933 22.2992 151.196 22.8862 148.946 22.88L138.777 22.8731Z" fill="white"/>
<path d="M178.793 0.365234L177.825 5.66806H171.567L168.376 23.1261H162.848L166.039 5.67954H159.781L160.75 0.376712L178.793 0.365234Z" fill="white"/>
<path d="M176.725 22.8731L180.885 0.112305H196.431L195.462 5.66765H185.444L184.801 8.68865H194.443L193.506 14.0741H183.862L183.212 17.3752H193.228L192.271 22.8846L176.725 22.8731Z" fill="white"/>
<path d="M209.022 22.8735L205.138 14.9216H203.363L201.926 22.8735H196.46L200.572 0.112702H212.559C213.498 0.0869412 214.435 0.210927 215.335 0.479997C216.003 0.680763 216.588 1.09225 217.004 1.65305C217.412 2.26179 217.644 2.97095 217.676 3.70301C218.025 8.06465 217.123 11.5746 212.784 13.744C212.071 14.1113 211.305 14.366 210.514 14.4992C212.279 18.0298 214.513 22.8735 214.513 22.8735H209.022ZM209.637 5.42701H205.08L204.307 9.71518H209.637C210.135 9.71209 210.617 9.53447 210.997 9.2132C211.378 8.89193 211.634 8.44734 211.721 7.95675C211.781 7.64871 211.772 7.33138 211.694 7.0273C211.617 6.72322 211.474 6.43985 211.275 6.19729C211.076 5.95474 210.826 5.75896 210.543 5.62386C210.26 5.48875 209.951 5.41762 209.637 5.41553V5.42701Z" fill="white"/>
<path d="M98.4957 59.6302H93.3237L95.5183 49.9887L88.6315 59.3501C88.4194 59.5842 88.1546 59.7645 87.859 59.8761C87.5635 59.9877 87.2456 60.0274 86.9317 59.992C86.6178 59.9565 86.3168 59.847 86.0535 59.6723C85.7903 59.4977 85.5723 59.2629 85.4177 58.9874L81.6437 50.4937L80.4156 59.6348H75.2505L78.9785 39.2361C79.0989 38.5794 79.4448 37.9854 79.9566 37.5566C80.4684 37.1278 81.1138 36.8912 81.7815 36.8877H82.5711C83.0282 36.8849 83.4732 37.0336 83.8367 37.3106C84.2002 37.5877 84.4615 37.9775 84.5798 38.4189L87.4883 50.6682C87.5371 50.851 87.6384 51.0154 87.7798 51.1412C87.9211 51.2669 88.0963 51.3484 88.2835 51.3755C88.4707 51.4026 88.6618 51.3742 88.833 51.2938C89.0042 51.2134 89.1481 51.0844 89.2467 50.923L96.9967 38.233C97.2475 37.8245 97.5989 37.4872 98.0173 37.2533C98.4357 37.0194 98.9071 36.8967 99.3864 36.8969H100.534C100.793 36.8968 101.049 36.9535 101.284 37.0632C101.518 37.173 101.726 37.3329 101.892 37.5318C102.058 37.7306 102.178 37.9635 102.245 38.214C102.311 38.4645 102.321 38.7265 102.274 38.9813L98.4957 59.6302Z" fill="white"/>
<path d="M122.09 59.9998L127.303 37.2734H132.124L128.113 54.759H136.323L135.117 60.0067L122.09 59.9998Z" fill="white"/>
<path d="M138.228 59.9998L143.444 37.2734H148.264L144.254 54.759H152.463L151.26 60.0067L138.228 59.9998Z" fill="white"/>
<path d="M122.117 41.6951C122.067 40.5289 121.808 39.6107 121.339 38.9403C120.837 38.2392 120.107 37.7351 119.273 37.5148C118.133 37.2134 116.956 37.0759 115.777 37.1062H113.307C112.091 37.0837 110.877 37.2211 109.696 37.5148C108.738 37.7631 107.861 38.2541 107.148 38.9403C106.381 39.7233 105.794 40.6631 105.426 41.6951C104.902 43.136 104.522 44.6255 104.292 46.1416L101.955 60.0001H107.061L108.454 52.3397H115.685L114.292 60.0093H119.399L121.736 46.1416C122.013 44.676 122.14 43.1863 122.117 41.6951ZM109.262 47.8656L109.57 46.1738C109.825 44.7666 110.963 43.7519 112.288 43.7519H115.171C116.243 43.7519 117.049 44.8125 116.842 45.9534L116.493 47.8656H109.262Z" fill="white"/>
</g>
<defs>
<clipPath id="clip0_60_221">
<rect width="217.163" height="60" fill="white" transform="translate(0.581665)"/>
</clipPath>
</defs>
</svg>
