<svg width="285" height="60" viewBox="0 0 285 60" fill="none" xmlns="http://www.w3.org/2000/svg">
<g clip-path="url(#clip0_60_181)">
<path d="M32.316 8.15427V3.85675C32.316 1.70799 30.5529 0 28.4042 0C26.2554 0 24.5474 1.76309 24.5474 3.85675V8.09917C11.9854 9.97245 2.28845 20.7713 2.28845 33.8292C2.28845 48.1543 13.9689 59.8347 28.294 59.8347C42.619 59.8347 54.2995 48.1543 54.2995 33.8292C54.2444 20.8815 44.7127 10.1377 32.316 8.15427ZM28.294 55.0964C16.5584 55.0964 7.02674 45.5647 7.02674 33.8292C7.02674 23.416 14.575 14.7107 24.5474 12.9477V17.5758C24.5474 18.843 25.1535 20 26.0901 20.7163V24.6281H17.3298C16.338 24.6281 15.4014 25.124 14.8504 26.0055C14.3546 26.8871 14.2995 27.9339 14.7953 28.8154L25.8697 49.9174C26.3656 50.854 27.3573 51.4601 28.4042 51.4601C29.5061 51.4601 30.4427 50.854 30.9386 49.9174L42.013 28.8154C42.4537 27.9339 42.4537 26.832 41.9028 26.0055C41.4069 25.1791 40.4703 24.6281 39.4785 24.6281H30.7182V20.7163C31.7099 20 32.316 18.843 32.316 17.5758V12.9477C42.1232 14.876 49.5061 23.5262 49.5061 33.8292C49.5061 45.5647 39.9744 55.0964 28.294 55.0964Z" fill="white"/>
<path d="M186.2 46.0053H177.66V35.7023H184.933V26.6664H177.66V17.7959H185.374V8.31934H166.035V55.4819H186.2V46.0053Z" fill="white"/>
<path d="M98.2664 17.7408H101.903V55.4268H113.473V8.31934H86.6962V55.4268H98.2664V17.7408Z" fill="white"/>
<path d="M82.8394 46.0604H74.2443V35.7023H81.5722V26.6664H74.2443V17.6857H82.1231V8.31934H62.5088V55.4268H82.8394V46.0604Z" fill="white"/>
<path d="M201.627 35.7574H205.209V55.4819H216.834V8.37451H205.209V25.2891H201.627V8.37451H190.057V55.4819H201.627V35.7574Z" fill="white"/>
<path d="M227.523 55.4819H239.093V17.796H246.035V8.37451H220.636V17.796H227.523V55.4819Z" fill="white"/>
<path d="M128.9 8.31934H117.33V55.4268H128.9V8.31934Z" fill="white"/>
<path d="M162.233 46.0053H159.754V8.31934H148.074V46.0053H144.437V8.31934H132.757V55.3717H154.134V59.9998H162.233V46.0053Z" fill="white"/>
<path d="M274.465 14.9861C274.189 13.5536 273.583 12.3966 272.757 11.4048C271.875 10.4131 270.608 9.64173 268.9 9.14586C267.192 8.5949 264.768 8.37451 261.627 8.37451H249.892V55.4819H261.462V36.4737H264.602C267.137 36.4737 269.231 36.088 270.773 35.3718C272.371 34.6555 273.418 33.5536 274.024 32.1762C274.63 30.7988 274.906 28.5949 274.906 25.6197V21.4875C274.906 18.5673 274.74 16.3635 274.465 14.9861ZM262.619 27.493C259.258 27.493 256.503 24.7381 256.503 21.3773C256.503 18.0164 259.258 15.2616 262.619 15.2616C265.98 15.2616 268.735 18.0164 268.735 21.3773C268.735 24.7932 265.98 27.493 262.619 27.493Z" fill="white"/>
<path d="M262.619 16.749C260.029 16.749 257.936 18.8427 257.936 21.3771C257.936 23.9667 260.029 26.0052 262.619 26.0052C265.209 26.0052 267.302 23.9116 267.302 21.3771C267.247 18.8427 265.153 16.749 262.619 16.749ZM263.445 24.4625L262.123 21.9281V24.4625H260.195V18.4019H262.123V20.9914L263.39 18.4019H265.649L263.996 21.4322L265.87 24.5176H263.445V24.4625Z" fill="white"/>
<path d="M282.289 13.4986L281.682 12.5069C281.572 12.3416 281.462 12.1763 281.297 12.0661C281.462 12.011 281.627 11.9008 281.738 11.7906C281.958 11.5702 282.013 11.2947 282.013 11.0193C282.013 10.7989 281.958 10.5785 281.848 10.3581C281.738 10.1377 281.572 10.0275 281.352 9.91732C281.132 9.86223 280.911 9.80713 280.525 9.80713H278.928H278.707V10.0275V13.6088V13.8292H278.928H279.424H279.644V13.6088V12.2314H279.974C280.14 12.2314 280.195 12.2314 280.195 12.2314C280.25 12.2314 280.305 12.2865 280.36 12.2865C280.415 12.2865 280.47 12.3416 280.525 12.4518C280.636 12.562 280.746 12.7272 280.856 12.9476L281.352 13.6639L281.407 13.7741H281.517H282.123H282.509L282.289 13.4986ZM281.076 11.2396C281.021 11.2947 280.966 11.3498 280.911 11.3498C280.801 11.4049 280.691 11.4049 280.47 11.4049H279.644V10.6336H280.581C280.801 10.6336 280.966 10.6887 281.021 10.7438C281.076 10.7989 281.132 10.9091 281.132 11.0193C281.132 11.0743 281.076 11.1294 281.076 11.2396Z" fill="white"/>
<path d="M283.335 11.8458C283.335 13.4436 282.013 14.7659 280.415 14.7659C278.817 14.7659 277.495 13.4436 277.495 11.8458C277.495 10.248 278.817 8.92565 280.415 8.92565C282.013 8.87055 283.335 10.1929 283.335 11.8458ZM280.415 8.1543C278.377 8.1543 276.724 9.80719 276.724 11.8458C276.724 13.8843 278.377 15.5372 280.415 15.5372C282.454 15.5372 284.107 13.8843 284.107 11.8458C284.107 9.80719 282.399 8.1543 280.415 8.1543Z" fill="white"/>
</g>
<defs>
<clipPath id="clip0_60_181">
<rect width="283.141" height="60" fill="white" transform="translate(0.966187)"/>
</clipPath>
</defs>
</svg>
