<svg width="164" height="60" viewBox="0 0 164 60" fill="none" xmlns="http://www.w3.org/2000/svg">
<g clip-path="url(#clip0_60_198)">
<path d="M75.9319 3.80952C49.17 3.80952 24.0272 11.2381 2.59861 24C23.17 8.95238 48.5034 0 75.9319 0C103.361 0 128.694 8.95238 149.265 24C127.837 11.2381 102.694 3.80952 75.9319 3.80952ZM0.693848 60H17.7415L21.17 50.8571H10.2177V28.6667H0.693848V60ZM83.0748 28.5714H73.0748L65.9319 47.1429L58.3129 28.5714H47.8367L60.6938 60H71.3605L83.0748 28.5714ZM97.8367 28.5714H87.9319L76.1224 60H86.1224L97.8367 28.5714ZM125.17 28.5714L118.503 46.381L112.218 28.5714H102.313L90.5034 60H100.503L107.17 42.1905L113.456 59.9048H123.456L135.17 28.4762L125.17 28.5714ZM56.4081 60H45.9319L44.0272 55.2381H33.551L31.6462 60H21.17L33.0748 28.5714H43.551L56.4081 60ZM41.7415 48.1905L38.7891 41.2381L36.1224 48.1905H41.7415ZM163.361 60H152.884L150.98 55.2381H140.503L138.599 60H128.122L140.027 28.5714H150.503L163.361 60ZM148.694 48.1905L145.741 41.2381L143.075 48.1905H148.694Z" fill="white"/>
</g>
<defs>
<clipPath id="clip0_60_198">
<rect width="162.667" height="60" fill="white" transform="translate(0.693848)"/>
</clipPath>
</defs>
</svg>
