<svg width="59" height="45" viewBox="0 0 59 45" fill="none" xmlns="http://www.w3.org/2000/svg">
<g clip-path="url(#clip0_91_703)">
<path fill-rule="evenodd" clip-rule="evenodd" d="M24.5581 19.0215C29.5513 23.2966 31.0991 29.8796 29.127 36.0336H44.4095C45.8641 31.7258 50.2465 29.2548 55.165 31.3435L56.932 20.9469C57.2303 19.194 55.4774 17.7161 53.7011 17.7161H43.836V9.88837C43.836 9.27763 43.3465 8.76946 42.7404 8.74149V4.69476H41.2299V8.74149C40.6378 8.78345 40.167 9.2823 40.167 9.88371V17.7161H32.4651C33.9384 10.7462 32.218 8.36386 31.225 1.27276C30.8334 0.256417 30.0641 0.0279728 29.197 0H11.2478C10.348 0.00932425 9.72326 0.456888 9.39691 1.38931L8.1801 13.1146L5.75579 15.9771C4.69749 17.2032 5.00519 16.9189 5.97957 18.3828C6.14741 18.2616 6.31525 18.1403 6.48775 18.0284C11.5881 14.6904 19.7562 15.2918 24.5581 19.0215ZM42.526 2.52221C42.5959 2.45228 42.7078 2.44762 42.7824 2.51755C42.8523 2.58748 42.857 2.69937 42.7871 2.77397C42.6519 2.91383 42.7031 3.1143 42.7498 3.30079C42.8337 3.61781 42.9083 3.90686 42.526 4.12598C42.4374 4.17727 42.3302 4.14463 42.2789 4.06071C42.2276 3.97679 42.2649 3.8649 42.3488 3.81362C42.4887 3.73436 42.4467 3.57119 42.4001 3.39403C42.3302 3.1143 42.2509 2.81126 42.526 2.52221ZM41.435 2.52221C41.505 2.45228 41.6169 2.44762 41.6915 2.51755C41.7614 2.58748 41.7661 2.69937 41.6961 2.77397C41.5609 2.91383 41.6122 3.1143 41.6588 3.30079C41.7427 3.61781 41.8173 3.90686 41.435 4.12598C41.3465 4.17727 41.2392 4.14463 41.188 4.06071C41.1367 3.97213 41.1693 3.8649 41.2532 3.81362C41.3931 3.73436 41.3511 3.57119 41.3045 3.39403C41.2346 3.1143 41.1553 2.81126 41.435 2.52221ZM21.5791 3.87889V12.5271C23.5791 12.9794 25.5558 13.5994 27.5 14.392C28.5163 14.8069 29.7145 13.4689 29.5 12.3919L28.1946 5.87428C27.9802 4.79733 27.2948 3.87423 26.1946 3.87423H21.5791V3.87889ZM19.593 12.1309V3.87889H14.6511C13.5509 3.87889 12.9028 4.80665 12.6511 5.87894L11.7839 9.61797C11.5368 10.6903 12.6837 11.5994 13.784 11.618C15.7421 11.6367 17.6768 11.8092 19.593 12.1309ZM52.0694 32.1687C55.4214 32.1687 58.1441 34.8867 58.1441 38.2434C58.1441 41.5955 55.4261 44.3135 52.0694 44.3135C48.7126 44.3135 45.9993 41.5955 45.9993 38.2434C45.9993 34.8867 48.7173 32.1687 52.0694 32.1687ZM13.8306 18.5506C20.9963 18.5506 26.8053 24.3596 26.8053 31.5253C26.8053 38.691 20.9963 44.5 13.8306 44.5C6.66491 44.5 0.855896 38.691 0.855896 31.5253C0.855896 24.3596 6.66491 18.5506 13.8306 18.5506ZM13.8306 24.5508C17.6815 24.5508 20.8051 27.6744 20.8051 31.5253C20.8051 35.3762 17.6815 38.4998 13.8306 38.4998C9.97968 38.4998 6.85605 35.3762 6.85605 31.5253C6.85605 27.6744 9.97968 24.5508 13.8306 24.5508ZM52.0694 35.1618C53.771 35.1618 55.1464 36.5417 55.1464 38.2388C55.1464 39.9404 53.7664 41.3158 52.0694 41.3158C50.3677 41.3158 48.9924 39.9358 48.9924 38.2388C48.9924 36.5417 50.3723 35.1618 52.0694 35.1618ZM43.0435 21.5111H50.7127L50.5402 22.3969H42.8943L43.0435 21.5111ZM40.3534 26.2851H50.7127L50.5402 27.1709H40.1996L40.3534 26.2851ZM41.3092 23.8981H50.7173L50.5448 24.7839H41.1553L41.3092 23.8981Z" fill="white"/>
</g>
<defs>
<clipPath id="clip0_91_703">
<rect width="57.2882" height="44.5" fill="white" transform="translate(0.855896)"/>
</clipPath>
</defs>
</svg>
