<svg width="42" height="42" viewBox="0 0 42 42" fill="none" xmlns="http://www.w3.org/2000/svg">
<path d="M21 2.1875C31.3775 2.1875 39.8125 10.6225 39.8125 21C39.8125 31.3775 31.3775 39.8125 21 39.8125C10.6225 39.8125 2.1875 31.3775 2.1875 21C2.1875 10.6225 10.6225 2.1875 21 2.1875ZM21 37.1875C29.925 37.1875 37.1875 29.925 37.1875 21C37.1875 12.075 29.925 4.8125 21 4.8125C12.075 4.8125 4.8125 12.075 4.8125 21C4.8125 29.925 12.075 37.1875 21 37.1875Z" fill="#111111"/>
<path d="M18.795 13.51C19.1275 13.51 19.46 13.6325 19.7225 13.895L25.9 20.0725C26.4075 20.58 26.4075 21.42 25.9 21.9275L19.7225 28.105C19.215 28.6125 18.375 28.6125 17.8675 28.105C17.36 27.5975 17.36 26.7575 17.8675 26.25L23.1175 21L17.8675 15.75C17.36 15.2425 17.36 14.4025 17.8675 13.895C18.1125 13.6325 18.445 13.51 18.795 13.51Z" fill="#111111"/>
</svg>
