<svg width="42" height="42" viewBox="0 0 42 42" fill="none" xmlns="http://www.w3.org/2000/svg">
<path d="M21 39.8125C10.6225 39.8125 2.1875 31.3775 2.1875 21C2.1875 10.6225 10.6225 2.1875 21 2.1875C31.3775 2.1875 39.8125 10.6225 39.8125 21C39.8125 31.3775 31.3775 39.8125 21 39.8125ZM21 4.8125C12.075 4.8125 4.8125 12.075 4.8125 21C4.8125 29.925 12.075 37.1875 21 37.1875C29.925 37.1875 37.1875 29.925 37.1875 21C37.1875 12.075 29.925 4.8125 21 4.8125Z" fill="#111111"/>
<path d="M23.205 28.49C22.8725 28.49 22.54 28.3675 22.2775 28.105L16.1 21.9275C15.5925 21.42 15.5925 20.58 16.1 20.0725L22.2775 13.895C22.785 13.3875 23.625 13.3875 24.1325 13.895C24.64 14.4025 24.64 15.2425 24.1325 15.75L18.8825 21L24.1325 26.25C24.64 26.7575 24.64 27.5975 24.1325 28.105C23.8875 28.3675 23.555 28.49 23.205 28.49Z" fill="#111111"/>
</svg>
